<svg xmlns="http://www.w3.org/2000/svg" xmlns:xlink="http://www.w3.org/1999/xlink" width="2697" height="1441.0001220703125" viewBox="0 0 2697 1441.0001220703125" fill="none"><path d="M494.987 885.174L2268.42 696.234C2420.57 680.066 2543.91 790.308 2543.91 942.408C2543.91 1094.44 2420.57 1230.87 2268.42 1247.03L495.006 1435.68C467.389 1438.62 445 1418.61 445 1390.99L445 940.486C445 912.877 467.378 888.116 494.987 885.174Z"   fill="#A073FF" ></path><path d="M395.75 895.933C395.43 895.968 395.11 896.003 394.79 896.036C214.72 914.962 53.3558 783.888 34.3724 603.272C15.3891 422.658 145.975 260.898 326.045 241.972C412.188 232.918 498.466 258.444 565.952 312.951C570.148 316.34 574.26 319.833 578.285 323.425L2365.74 135.555C2516.92 119.666 2652.35 229.297 2668.24 380.424C2684.12 531.55 2574.44 666.944 2423.27 682.833L395.75 895.933Z" fill-rule="evenodd"  fill="#608FEE" ></path><path d="M606.614 543.129C607.039 547.169 607.365 551.218 607.592 555.276C607.818 559.333 607.946 563.393 607.974 567.458C608.001 571.521 607.93 575.583 607.759 579.642C607.587 583.702 607.317 587.756 606.948 591.801C606.578 595.848 606.11 599.883 605.542 603.906C604.976 607.929 604.31 611.935 603.548 615.926C602.784 619.917 601.924 623.885 600.966 627.833C600.01 631.782 598.956 635.703 597.806 639.599C596.656 643.494 595.412 647.359 594.073 651.194C592.736 655.028 591.304 658.828 589.779 662.592C588.254 666.355 586.638 670.079 584.931 673.764C583.224 677.447 581.428 681.087 579.543 684.683C577.657 688.279 575.685 691.825 573.625 695.324C571.566 698.822 569.423 702.268 567.196 705.66C564.969 709.053 562.659 712.389 560.267 715.668C557.876 718.947 555.406 722.165 552.857 725.322C550.309 728.478 547.684 731.572 544.984 734.6C542.283 737.627 539.511 740.586 536.666 743.478C533.821 746.369 530.907 749.188 527.924 751.936C524.94 754.684 521.892 757.356 518.777 759.954C515.664 762.551 512.488 765.07 509.249 767.511C506.012 769.952 502.717 772.312 499.364 774.59C496.011 776.868 492.603 779.063 489.143 781.175C485.682 783.285 482.172 785.309 478.612 787.247C475.052 789.184 471.447 791.034 467.797 792.795C464.146 794.555 460.454 796.224 456.721 797.803C452.989 799.38 449.22 800.867 445.414 802.259C441.609 803.651 437.773 804.95 433.904 806.154C430.034 807.358 426.139 808.465 422.215 809.478C418.292 810.489 414.346 811.404 410.379 812.222C406.41 813.039 402.424 813.759 398.42 814.38C394.418 815 390.401 815.523 386.371 815.947C382.342 816.37 378.305 816.694 374.26 816.919C370.215 817.144 366.166 817.269 362.115 817.295C358.064 817.319 354.014 817.245 349.966 817.071C345.918 816.896 341.878 816.623 337.843 816.25C333.807 815.877 329.784 815.405 325.772 814.834C321.762 814.263 317.766 813.593 313.786 812.826C309.808 812.057 305.85 811.193 301.913 810.23C297.976 809.267 294.065 808.207 290.181 807.052C286.295 805.896 282.44 804.647 278.618 803.302C274.793 801.956 271.004 800.517 267.251 798.986C263.497 797.455 259.783 795.832 256.108 794.117C252.434 792.403 248.804 790.599 245.218 788.706C241.632 786.812 238.094 784.832 234.605 782.765C231.115 780.697 227.679 778.546 224.295 776.309C220.911 774.073 217.583 771.755 214.312 769.355C211.042 766.954 207.832 764.474 204.682 761.916C201.533 759.359 198.448 756.725 195.428 754.015C192.407 751.304 189.454 748.521 186.569 745.666C183.685 742.811 180.872 739.886 178.131 736.892C175.39 733.898 172.723 730.839 170.132 727.714C167.54 724.588 165.026 721.402 162.59 718.154C160.154 714.904 157.8 711.597 155.526 708.234C153.252 704.869 151.062 701.45 148.955 697.978C146.848 694.505 144.828 690.983 142.893 687.412C140.959 683.841 139.113 680.224 137.356 676.56C135.598 672.898 133.932 669.195 132.356 665.45C130.78 661.705 129.296 657.925 127.905 654.107C126.514 650.291 125.217 646.441 124.014 642.56C122.812 638.679 121.705 634.77 120.693 630.835C119.682 626.9 118.767 622.942 117.95 618.961C117.132 614.98 116.412 610.982 115.79 606.966C115.168 602.95 114.645 598.922 114.22 594.881C113.795 590.839 113.47 586.79 113.243 582.733C113.017 578.675 112.89 574.615 112.862 570.552C112.834 566.489 112.906 562.427 113.077 558.367C113.248 554.308 113.518 550.254 113.887 546.207C114.257 542.162 114.725 538.127 115.292 534.103C115.859 530.08 116.524 526.073 117.287 522.083C118.05 518.092 118.911 514.124 119.868 510.176C120.826 506.228 121.879 502.307 123.028 498.41C124.178 494.515 125.422 490.649 126.76 486.815C128.1 482.98 129.531 479.181 131.056 475.418C132.581 471.654 134.196 467.93 135.903 464.246C137.61 460.561 139.407 456.922 141.292 453.326C143.178 449.73 145.15 446.184 147.209 442.685C149.268 439.187 151.411 435.741 153.638 432.349C155.867 428.956 158.176 425.62 160.567 422.341C162.958 419.062 165.428 415.844 167.977 412.687C170.525 409.53 173.15 406.437 175.85 403.409C178.55 400.382 181.323 397.422 184.169 394.531C187.013 391.64 189.927 388.821 192.911 386.073C195.894 383.325 198.942 380.653 202.057 378.055C205.171 375.458 208.347 372.939 211.584 370.498C214.822 368.057 218.117 365.698 221.471 363.418C224.824 361.14 228.231 358.946 231.692 356.835C235.152 354.725 238.662 352.7 242.223 350.762C245.782 348.824 249.387 346.975 253.038 345.215C256.688 343.455 260.38 341.785 264.112 340.207C267.845 338.628 271.614 337.142 275.419 335.75C279.224 334.357 283.061 333.059 286.931 331.855C290.8 330.651 294.696 329.544 298.618 328.531C302.542 327.52 306.488 326.605 310.455 325.788C314.424 324.97 318.41 324.25 322.413 323.629C326.416 323.008 330.433 322.486 334.461 322.062C338.491 321.639 342.529 321.314 346.573 321.09C350.619 320.865 354.667 320.74 358.719 320.715C362.77 320.69 366.82 320.764 370.867 320.938C374.916 321.112 378.956 321.386 382.992 321.759C387.027 322.132 391.049 322.604 395.061 323.175C399.072 323.746 403.068 324.416 407.046 325.184C411.026 325.952 414.985 326.817 418.922 327.78C422.858 328.743 426.769 329.802 430.654 330.957C434.539 332.113 438.393 333.363 442.218 334.708C446.041 336.053 449.83 337.491 453.584 339.022C457.338 340.554 461.051 342.177 464.725 343.892C468.4 345.606 472.031 347.41 475.616 349.303C479.203 351.196 482.74 353.177 486.23 355.244C489.719 357.311 493.155 359.463 496.539 361.7C499.924 363.936 503.25 366.254 506.521 368.654C509.792 371.055 513.003 373.534 516.151 376.092C519.301 378.651 522.386 381.285 525.407 383.995C528.428 386.705 531.381 389.487 534.265 392.343C537.149 395.199 539.962 398.123 542.703 401.117C545.445 404.111 548.111 407.17 550.704 410.295C553.295 413.42 555.809 416.607 558.245 419.856C560.679 423.104 563.035 426.411 565.309 429.776C567.583 433.14 569.774 436.559 571.879 440.032C573.986 443.503 576.007 447.025 577.941 450.597C579.876 454.169 581.722 457.786 583.478 461.448C585.236 465.111 586.902 468.814 588.479 472.559C590.054 476.303 591.538 480.084 592.929 483.902C594.321 487.719 595.618 491.568 596.82 495.449C598.023 499.331 599.13 503.239 600.142 507.174C601.153 511.11 602.068 515.068 602.885 519.048C603.703 523.029 604.423 527.026 605.045 531.042C605.666 535.058 606.189 539.087 606.614 543.129Z"   fill="#FFFFFF" ></path><path d="M567.867 549.883C568.354 554.515 568.607 559.167 568.624 563.823C568.595 559.281 568.342 554.699 567.858 550.087C562.136 495.645 525.567 451.9 477.745 434.499C493.533 442.613 505.071 458.442 507.086 477.611C510.246 507.679 488.9 534.516 459.321 537.625C441.264 539.523 424.339 532.136 413.175 519.252C397.898 504.365 376.767 497.044 355.524 499.277C336.591 501.267 319.221 510.679 307.237 525.443C296.19 539.053 290.52 556.227 291.301 573.719C288.961 538.866 299.907 504.411 321.948 477.259C345.124 448.707 378.715 430.504 415.331 426.655C429.715 425.144 444.246 425.884 458.398 428.849C464.965 429.458 471.238 431.279 476.971 434.109C491.552 439.358 505.148 447.006 517.194 456.738C545.801 479.847 564.028 513.353 567.867 549.883Z" fill-rule="evenodd"  fill="#608FEE" ></path>
<!--欢迎参与 CoCo编辑器 四周年特别企划：解密活动！-->
<!--当你看到这行字时，说明你已经成功通过了第0关，即将开始第1关的旅途-->
<!--链接：https://coco.codemao.cn/editor/player/277453795?channel=h5-->
<path d="M576.661 563.767C576.643 558.845 576.376 553.937 575.862 549.042C575.067 541.477 573.715 534.084 571.807 526.863C568.323 513.511 562.998 500.925 555.834 489.105C548.413 476.701 539.352 465.658 528.653 455.974C520.966 448.946 512.627 442.848 503.636 437.682C496.176 433.357 488.338 429.702 480.121 426.717C473.612 423.563 466.776 421.627 459.612 420.909C444.693 417.829 429.653 417.086 414.492 418.68C395.124 420.716 376.881 426.371 359.765 435.646C342.649 444.922 327.961 457.11 315.702 472.213C304.043 486.575 295.415 502.565 289.819 520.181C284.222 537.797 282.042 555.823 283.281 574.259C283.572 578.608 287.293 581.926 291.658 581.73C293.787 581.635 295.792 580.699 297.231 579.129C298.67 577.559 299.425 575.483 299.331 573.358C298.613 557.284 303.33 542.995 313.482 530.488C324.562 516.838 338.856 509.092 356.362 507.252C365.794 506.261 374.989 507.317 383.946 510.42C392.804 513.489 400.598 518.272 407.329 524.769C413.807 532.164 421.569 537.709 430.615 541.404C440.094 545.275 449.942 546.675 460.159 545.601C477.185 543.811 491.057 536.181 501.775 522.712C512.453 509.292 516.889 493.978 515.08 476.77C514.575 471.96 513.572 467.344 512.073 462.922C512.093 462.938 512.114 462.954 512.134 462.971C513.711 464.245 515.252 465.549 516.759 466.882C522.311 471.847 527.489 477.349 532.29 483.388C536.111 488.193 539.546 493.159 542.594 498.286C543.333 499.543 544.053 500.817 544.753 502.106C549.489 510.812 553.166 519.845 555.784 529.206C557.718 536.207 559.078 543.447 559.864 550.927C560.317 555.238 560.558 559.548 560.586 563.856L560.586 563.877C560.614 568.299 564.222 571.861 568.653 571.843C570.785 571.834 572.826 570.98 574.329 569.47C575.83 567.96 576.67 565.916 576.662 563.79L576.661 563.767ZM473.737 441.453C473.844 441.514 473.952 441.572 474.061 441.628C480.911 445.149 486.547 450.098 490.97 456.475C495.536 463.059 498.244 470.384 499.091 478.45C500.444 491.314 497.142 502.745 489.187 512.742C481.268 522.695 471.033 528.331 458.483 529.65C450.95 530.441 443.693 529.411 436.711 526.559C429.926 523.788 424.107 519.604 419.257 514.005C419.109 513.835 418.954 513.67 418.793 513.513C410.299 505.236 400.443 499.155 389.227 495.268C378.01 491.382 366.496 490.06 354.685 491.301C344.159 492.408 334.244 495.481 324.94 500.522C319.841 503.285 315.139 506.524 310.833 510.239C315.385 500.265 321.172 490.953 328.193 482.304C339.11 468.855 352.19 458 367.433 449.74C382.676 441.48 398.921 436.444 416.169 434.631C429.803 433.198 443.328 433.887 456.743 436.697C457.042 436.76 457.346 436.806 457.651 436.834C463.159 437.345 468.41 438.832 473.403 441.297C473.513 441.352 473.625 441.403 473.737 441.453Z" fill-rule="evenodd"  fill="#FFFFFF" ></path><path d="M333.791 672.352L333.826 672.387C322.837 675.81 311.347 678.207 299.458 679.457C268.312 682.731 238.206 677.718 211.347 666.196C196.613 642.941 187.454 616.607 184.577 589.241C179.614 542.018 193.657 494.753 223.617 457.843C253.577 420.935 297.001 397.404 344.334 392.429C394.297 387.178 444.168 403.061 481.825 436.218C461.547 428.708 439.832 425.974 418.372 428.23C341.997 436.257 285.985 504.36 292.102 581.755C298.085 619.362 332.521 645.707 370.481 641.717C384.862 640.206 398.452 634.396 409.471 625.05C388.718 647.023 362.659 663.311 333.791 672.352ZM431.981 595.448C430.184 598.403 428.301 601.309 426.333 604.16C426.274 604.27 426.215 604.381 426.156 604.492C428.206 601.535 430.166 598.518 432.032 595.443L431.981 595.448Z" fill-rule="evenodd"  fill="#608FEE" ></path><path d="M337.03 679.739C336.765 679.855 336.493 679.955 336.218 680.041C324.541 683.679 312.567 686.143 300.296 687.433C268.276 690.798 237.567 686.175 208.168 673.563C206.678 672.925 205.417 671.851 204.552 670.484C188.952 645.859 179.629 619.059 176.583 590.082C173.99 565.412 176.227 541.184 183.294 517.398C190.361 493.612 201.72 472.079 217.371 452.798C233.022 433.517 251.774 417.955 273.627 406.113C295.48 394.272 318.769 387.052 343.495 384.453C369.597 381.71 395.145 384.319 420.141 392.279C445.138 400.241 467.473 412.882 487.146 430.203C490.473 433.134 490.789 438.201 487.851 441.523C485.65 444.01 482.141 444.89 479.025 443.736C459.65 436.561 439.712 434.051 419.211 436.205C402.585 437.953 386.847 442.689 371.994 450.415C355.907 458.783 342.08 469.998 330.512 484.062C318.939 498.135 310.546 513.942 305.336 531.481C300.551 547.587 298.803 564.028 300.091 580.802C302.797 597.357 310.831 610.746 324.193 620.97C337.638 631.255 352.788 635.513 369.642 633.742C382.711 632.368 394.253 627.435 404.267 618.94C405.891 617.562 407.998 616.885 410.122 617.056C412.248 617.227 414.217 618.235 415.597 619.854C418.248 622.967 418.129 627.574 415.32 630.549C393.459 653.695 367.362 670.091 337.03 679.739ZM330.634 664.977C320.225 668.164 309.554 670.332 298.619 671.482C270.218 674.467 242.952 670.571 216.823 659.796C203.352 637.864 195.269 614.067 192.571 588.401C190.201 565.848 192.246 543.698 198.707 521.95C205.168 500.204 215.554 480.517 229.863 462.889C244.172 445.261 261.315 431.033 281.294 420.207C301.273 409.381 322.565 402.78 345.172 400.404C369.035 397.896 392.393 400.281 415.247 407.56C425.421 410.801 435.114 414.889 444.324 419.826C435.492 419.163 426.561 419.305 417.534 420.254C398.883 422.215 381.228 427.527 364.568 436.193C346.538 445.571 331.044 458.137 318.087 473.891C305.137 489.636 295.75 507.316 289.923 526.93C284.543 545.04 282.598 563.527 284.089 582.389C284.106 582.599 284.13 582.808 284.164 583.016C285.704 592.7 288.927 601.79 293.834 610.284C299.131 619.455 305.988 627.26 314.406 633.7C322.825 640.141 332.16 644.723 342.411 647.447C349.847 649.424 357.369 650.312 364.977 650.111C354.491 656.108 343.295 660.971 331.387 664.701C331.132 664.781 330.88 664.873 330.634 664.977ZM431.143 587.472C428.645 587.734 426.412 589.147 425.109 591.291C423.394 594.113 421.595 596.888 419.713 599.615C419.545 599.859 419.391 600.11 419.251 600.371L419.073 600.703C416.973 604.607 418.443 609.468 422.354 611.558C425.957 613.486 430.436 612.408 432.764 609.054C434.908 605.962 436.956 602.809 438.907 599.594C441.207 595.803 439.993 590.872 436.195 588.58C434.695 587.675 432.939 587.283 431.193 587.466L431.143 587.472Z" fill-rule="evenodd"  fill="#FFFFFF" ></path><path d="M423.166 608.815C431.331 593.579 446.519 582.555 464.833 580.63C494.411 577.521 520.871 599.334 524.023 629.323C525.083 639.407 523.385 649.13 519.546 657.714C519.278 658.508 518.889 659.356 518.367 660.265C518.238 660.487 518.109 660.709 517.979 660.931C516.877 663.015 515.645 665.023 514.292 666.939C486.059 710.973 438.412 742.613 381.759 748.568C311.628 755.939 246.651 721.882 211.316 666.155C239.077 678.052 269.438 682.64 299.493 679.481C348.827 674.296 393.711 648.65 423.166 608.815Z" fill-rule="evenodd"  fill="#608FEE" ></path><path d="M416.367 604.503C402.369 623.308 385.177 638.535 364.792 650.184C344.245 661.924 322.199 669.032 298.655 671.507C269.487 674.572 241.433 670.332 214.491 658.786L190.652 648.57L204.522 670.445C223.287 700.038 248.418 722.626 279.915 738.208C312.288 754.224 346.514 760.336 382.596 756.543C411.627 753.492 438.417 744.25 462.966 728.818C486.584 713.97 505.919 694.834 520.969 671.405C522.449 669.296 523.794 667.103 525.005 664.826L525.083 664.694L525.341 664.25C526.039 663.034 526.601 661.839 527.026 660.665C531.534 650.445 533.198 639.718 532.017 628.483C530.212 611.309 522.692 597.274 509.455 586.379C496.168 575.44 481.014 570.866 463.995 572.654C453.634 573.743 444.177 577.237 435.626 583.135C427.532 588.717 421.112 595.839 416.367 604.503ZM429.98 613.107L430.255 612.594C433.803 605.973 438.639 600.551 444.762 596.328C451.062 591.982 458.032 589.408 465.671 588.606C478.218 587.287 489.401 590.669 499.221 598.752C509.078 606.866 514.68 617.337 516.028 630.164C516.921 638.66 515.647 646.755 512.206 654.449L512.048 654.802L511.925 655.167C511.823 655.47 511.646 655.842 511.394 656.281L511.185 656.639L510.951 657.039L510.868 657.195C509.929 658.973 508.88 660.682 507.722 662.323L507.619 662.469L507.522 662.62C493.749 684.102 476.042 701.645 454.4 715.249C431.963 729.354 407.47 737.802 380.92 740.592C347.933 744.059 316.647 738.475 287.063 723.838C265.978 713.407 248.013 699.545 233.168 682.253C254.923 688.142 277.311 689.877 300.331 687.458C326.121 684.747 350.27 676.962 372.776 664.101C395.283 651.241 414.235 634.399 429.634 613.574L429.98 613.107Z" fill-rule="evenodd"  fill="#FFFFFF" ></path><g ><path     fill="#FFFFFF"  d="M822.791 642.515Q816.978 670.475 803.059 685.066Q789.14 699.657 765.876 702.102Q734.767 705.372 720.954 679.337Q707.141 653.302 708.716 595.429Q710.448 536.444 726.526 507.268Q742.605 478.092 773.713 474.822Q794.002 472.69 806.173 484.401Q818.343 496.113 824.477 515.434L797.24 524.314Q794.152 513.151 788.195 507.214Q782.237 501.276 773.581 502.186Q760.596 503.55 753.298 513.48Q746 523.409 742.701 542.764Q739.402 562.119 737.931 592.358Q735.774 636.891 742.577 657.373Q749.379 677.854 768.314 675.864Q778.594 674.783 785.329 666.007Q792.065 657.231 796.395 641.186L822.791 642.515ZM885.712 689.507Q859.472 692.265 847.559 672.594Q835.645 652.924 836.749 608.775Q837.795 564.085 850.633 541.813Q863.471 519.541 889.17 516.84Q915.68 514.053 927.593 533.724Q939.507 553.394 938.46 598.084Q937.357 642.234 924.519 664.506Q911.681 686.778 885.712 689.507ZM885.046 664.962Q897.49 663.654 903.92 648.073Q910.351 632.491 911.409 600.928Q912.71 569.065 907.359 554.585Q902.008 540.105 889.565 541.413Q877.662 542.664 871.381 558.367Q865.1 574.069 863.8 605.932Q862.741 637.495 867.807 651.868Q872.873 666.241 885.046 664.962ZM1074.91 616.016Q1069.09 643.977 1055.17 658.568Q1041.25 673.159 1017.99 675.604Q986.882 678.874 973.069 652.839Q959.256 626.804 960.831 568.93Q962.563 509.946 978.642 480.77Q994.72 451.593 1025.83 448.324Q1046.12 446.191 1058.29 457.903Q1070.46 469.615 1076.59 488.936L1049.35 497.815Q1046.27 486.653 1040.31 480.715Q1034.35 474.777 1025.7 475.687Q1012.71 477.052 1005.41 486.981Q998.116 496.91 994.817 516.265Q991.518 535.62 990.047 565.86Q987.89 610.393 994.692 630.874Q1001.49 651.355 1020.43 649.365Q1030.71 648.285 1037.44 639.509Q1044.18 630.733 1048.51 614.688L1074.91 616.016ZM1137.83 663.009Q1111.59 665.766 1099.67 646.096Q1087.76 626.426 1088.86 582.276Q1089.91 537.586 1102.75 515.314Q1115.59 493.042 1141.29 490.341Q1167.8 487.555 1179.71 507.225Q1191.62 526.896 1190.58 571.586Q1189.47 615.735 1176.63 638.007Q1163.8 660.279 1137.83 663.009ZM1137.16 638.464Q1149.6 637.156 1156.04 621.574Q1162.47 605.993 1163.52 574.429Q1164.83 542.567 1159.47 528.087Q1154.12 513.607 1141.68 514.915Q1129.78 516.166 1123.5 531.868Q1117.22 547.571 1115.91 579.433Q1114.86 610.997 1119.92 625.37Q1124.99 639.743 1137.16 638.464ZM1227.47 641.553L1219.94 619.37Q1233.66 614.646 1246.74 608.896Q1259.81 603.146 1271.62 595.887L1278.68 611.008Q1282.37 586.279 1284.28 556.267Q1286.19 526.256 1286.28 490.691L1286.4 419.022L1330.49 414.387L1330.53 388.675L1353.25 386.287L1353.22 411.999L1380.81 409.099Q1389.47 408.189 1394.82 412.276Q1400.17 416.363 1400.03 425.404L1400.09 475.447L1308.12 485.114L1308.19 488.388Q1308.35 541.977 1304.66 583.663Q1300.98 625.349 1291.52 660.256L1270.19 649.917Q1274.21 636.093 1277.13 619.65Q1265.53 626.34 1252.97 631.762Q1240.41 637.184 1227.47 641.553ZM1227.23 579.493L1222.74 557.539Q1225.96 556.927 1229.15 556.045Q1234.93 543.403 1239.98 530.292Q1245.03 517.18 1249.4 504.14Q1243.8 505.548 1237.26 507.056Q1230.72 508.565 1223.2 509.902L1219.12 489.271Q1221.26 488.773 1223.15 488.574Q1230.19 467.049 1235.77 444.719Q1241.35 422.389 1245.87 400.308L1267 403.557Q1262.23 423.204 1257.09 443.299Q1251.95 463.393 1245.32 483.509Q1247.97 482.684 1250.76 481.98Q1253.56 481.276 1256.51 480.692Q1260.1 468.008 1262.96 456.22L1282.34 461.021Q1275.97 486.305 1269.03 507.41Q1262.08 528.516 1253.31 549.13Q1263.87 545.558 1274.89 541.118L1280.14 562.446Q1266.53 568.252 1253.4 572.094Q1240.26 575.936 1227.23 579.493ZM1308.03 463.516L1378.1 456.152L1378.19 430.981L1308.12 438.345L1308.03 463.516ZM1313.71 655.462L1313.65 498.754L1386.96 491.049Q1395.89 490.111 1400.36 494.973Q1404.84 499.836 1404.75 509.418L1404.91 614.972Q1404.58 630.049 1401.6 638.156Q1398.63 646.264 1389.16 647.259L1383.75 647.828L1381.26 626.756L1382.88 626.586Q1383.69 626.5 1384.9 625.006Q1386.11 623.511 1385.93 619.155L1385.94 572.385L1377.82 573.238L1377.85 643.798L1363.52 645.305L1363.48 574.745L1355.37 575.598L1355.4 646.158L1341.06 647.664L1341.03 577.105L1332.65 577.987L1332.65 653.472L1313.71 655.462ZM1332.48 560.774L1341.14 559.864L1341.08 517.751L1332.7 518.632L1332.48 560.774ZM1355.47 558.357L1363.59 557.504L1363.54 515.391L1355.42 516.244L1355.47 558.357ZM1377.92 555.997L1385.77 555.173L1385.99 513.031L1377.87 513.884L1377.92 555.997ZM1442.61 593.779L1437.49 571.07Q1446.52 568.48 1455.53 565.755Q1464.54 563.03 1473.54 560.17L1473.48 515.323L1459.95 516.744Q1457.69 523.82 1455.39 530.625L1437.18 521.325Q1452.18 479.271 1462.13 428.175L1441.84 430.308L1441.59 407.087L1466.47 404.471Q1468.6 390.847 1470.42 376.98L1491.35 378.336Q1489.63 390.551 1487.84 402.225L1515.17 399.354L1515.42 422.574L1483.5 425.929Q1480.46 441.291 1476.86 456.438L1494.98 454.533L1495.03 491.45L1510.45 489.83L1510.81 511.399L1495.12 513.048L1495.15 552.428Q1504.37 548.998 1513.82 545.27L1518.91 567.708Q1512.86 569.985 1506.95 572.248Q1501.03 574.511 1495.22 576.489L1495.23 636.384L1473.86 638.63L1473.61 584.23Q1465.93 586.678 1458.12 589.14Q1450.31 591.602 1442.61 593.779ZM1605.5 387.124L1605.48 431.159L1522.44 439.888L1522.72 377.501L1586.29 370.819Q1597.11 369.682 1601.43 374.424Q1605.76 379.165 1605.5 387.124ZM1543.92 417.938L1583.96 413.73L1584.27 390.722L1543.97 394.959L1543.92 417.938ZM1582.87 627.172L1582.98 589.145L1513.5 604.653L1511.04 583.852L1524.66 580.779L1524.79 472.733L1509.1 474.382L1509.14 453.867L1614.91 442.75L1614.87 463.265L1604.05 464.403L1604.07 563.408L1617.42 560.363L1619.58 580.922L1604.09 584.464L1603.97 624.955L1582.87 627.172ZM1466.9 494.407L1475.02 493.554L1474.98 464.568Q1471.08 479.473 1466.9 494.407ZM1545.89 491.302L1582.95 487.407L1582.95 466.62L1545.89 470.516L1545.89 491.302ZM1545.85 532.604L1582.91 528.708L1582.8 506.84L1545.74 510.735L1545.85 532.604ZM1545.71 552.037L1545.78 576.098L1582.95 568.088L1582.77 548.142L1545.71 552.037ZM1739.49 373.862L1739.37 429.942L1669.31 437.305L1669.28 361.55L1719.59 356.261Q1730.68 355.096 1735.17 360.094Q1739.66 365.092 1739.49 373.862ZM1824.16 364.962L1824.04 421.043L1753.98 428.406L1753.94 352.651L1804.26 347.362Q1815.35 346.197 1819.84 351.194Q1824.33 356.192 1824.16 364.962ZM1775.32 405.104L1802.37 402.26L1802.42 368.888L1775.37 371.732L1775.32 405.104ZM1690.65 414.003L1717.7 411.159L1717.78 378.058L1690.73 380.901L1690.65 414.003ZM1754.93 434.87Q1753.33 445.704 1750.21 455.058L1782.13 451.703Q1778.9 444.384 1775.22 437.934L1795.32 431.445Q1800.05 439.974 1803.77 449.428L1831.37 446.528L1831.45 468.126L1777.08 473.841Q1788.09 484.99 1803.01 491.627Q1817.93 498.264 1838.83 504.546L1831.89 524.42Q1826.26 522.824 1821.43 521.143Q1823.51 525.301 1823.65 531.85L1823.74 597.754L1753.68 605.118L1753.43 519.538L1802.13 514.42Q1786.12 507.897 1773.56 498.962Q1761 490.026 1751.38 476.542L1740.56 477.679Q1732.3 492.769 1719.84 504.335Q1707.38 515.9 1691.19 525.807L1721.49 522.623Q1732.58 521.457 1736.93 526.469Q1741.29 531.481 1741.39 540.223L1741.5 606.397L1671.71 613.732L1671.6 537.165Q1666.66 539.599 1661.2 542.36L1650.8 524.035Q1670.53 514.03 1686.02 503.924Q1701.5 493.818 1712.15 480.664L1658.05 486.351L1658.24 464.724L1726.41 457.56Q1731.01 446.683 1733.43 433.301L1754.93 434.87ZM1693.06 590.43L1720.11 587.586L1720.16 543.821L1693.11 546.665L1693.06 590.43ZM1775.02 581.815L1802.34 578.943L1802.42 535.449L1775.1 538.32L1775.02 581.815ZM1879.39 341.38L2019.78 326.624Q2031.42 325.402 2037.62 331.04Q2043.82 336.679 2043.69 348.453L2043.14 577.429L1878.94 594.687L1879.39 341.38ZM1903.59 363.452L1903.43 492.013Q1912.67 483.657 1917.52 473.848Q1922.37 464.04 1923.96 450.607Q1925.56 437.175 1925.73 418.012L1926.04 361.092L1903.59 363.452ZM2005.79 497.937Q1984.69 500.155 1976.51 487.34Q1968.32 474.526 1968.34 446.08L1968.24 356.656L1949.31 358.647L1949.05 416.108Q1948.98 433.619 1947.54 448.54Q1946.1 463.46 1941.71 476.365Q1937.33 489.27 1928.16 500.901Q1918.98 512.531 1903.51 524.004L1903.43 567.498L2018.94 555.358L2018.93 495.462Q2015.77 496.615 2012.4 497.105Q2009.04 497.596 2005.79 497.937ZM1991.71 436.787Q1991.89 451.536 1993.03 459.758Q1994.16 467.981 1997.89 470.871Q2001.61 473.762 2008.91 472.994Q2014.86 472.369 2019.02 470.291L2019.1 351.311L1991.51 354.211L1991.71 436.787ZM2109.74 318.537L2239.31 304.919Q2248.78 303.923 2255.82 308.516Q2262.87 313.109 2262.81 322.961L2262.63 516.344Q2262.78 536.019 2253.94 548.162Q2245.09 560.305 2227.51 562.153Q2209.66 564.03 2198.66 554.382Q2187.66 544.735 2183.94 530.084L2206.46 520.606Q2209.13 530.444 2214.07 534.438Q2219 538.433 2224.68 537.836Q2230.63 537.21 2234.46 532.021Q2238.29 526.833 2238.32 516.71L2238.81 328.766L2132.23 339.968L2131.15 399.977Q2130.95 424.066 2129.57 451.288Q2128.19 478.509 2121.86 509.395Q2115.54 540.282 2100.1 575.545L2079 562.173Q2093.05 529.244 2099.02 501.54Q2105 473.835 2106.53 449.333Q2108.05 424.832 2108.4 402.095L2109.74 318.537ZM2230.11 407.353L2230.05 427.598L2139.97 437.066L2140.03 416.821L2173.03 413.352L2173.07 387.64L2144.66 390.625L2144.81 371.192L2172.94 368.235L2173.04 345.797L2194.69 343.523L2194.58 365.96L2222.71 363.003L2222.57 382.437L2194.71 385.366L2194.67 411.078L2230.11 407.353ZM2145.27 505.704L2145.33 501.049L2145.27 495.311L2145.27 495.311L2145.32 461.939L2145.32 461.939L2145.41 452.358L2206 445.989Q2214.66 445.079 2219.63 449.479Q2224.61 453.879 2224.54 460.998L2224.54 505.304L2145.28 513.634L2145.27 505.704ZM2166.1 493.122L2203.16 489.227L2202.98 464.084L2166.19 467.951L2166.1 493.122ZM2391.97 542.133L2391.72 466.947L2298.67 476.727L2298.49 451.585L2333.92 447.86L2333.93 375.108L2391.55 369.052L2391.47 326.668L2348.73 331.161Q2343.06 344.884 2335.52 358.942Q2327.97 373 2317.76 387.748L2297.46 371.557Q2313.66 348.795 2323.41 326.985Q2333.15 305.175 2338.13 279.763L2361.95 285.191Q2359.79 295.811 2357.26 305.649L2474.12 293.366L2473.98 317.997L2417.44 323.939L2417.52 366.323L2465.13 361.319L2464.93 385.408L2417.59 390.384L2417.78 439.046L2489.47 431.512L2489.65 456.655L2417.69 464.217L2417.94 539.404L2391.97 542.133ZM2358.81 445.244L2391.81 441.776L2391.62 393.113L2358.89 396.553L2358.81 445.244Z"></path></g><g ><path     fill="#FFFFFF"  d="M638.67 1240.67L638.777 1197.45L626.333 1198.75Q625.106 1218.3 622.576 1237.17Q620.046 1256.03 615.715 1272.07L594.873 1266.33Q600.87 1242.73 603.793 1215.89Q606.716 1189.06 606.407 1160.1L606.347 1089.27L595.03 1083.07Q607.647 1062.6 614.441 1043.97Q621.235 1025.35 626.093 1006.51L648.929 1010.4Q646.436 1020.51 643.345 1030.13L660.387 1028.34Q670.396 1027.29 675.079 1032.81Q679.762 1038.34 676.699 1048.23Q674.677 1055.01 671.921 1061.32Q669.165 1067.62 666.003 1073.97L669.52 1073.6Q688.456 1071.61 687.968 1093L688.003 1233.84Q688.044 1247.24 682.96 1256.12Q677.875 1264.99 668.137 1266.02Q660.563 1266.81 655.353 1261.48Q650.143 1256.15 647.411 1245.77L662.218 1240.93Q663.599 1246.26 665.492 1246.06Q666.845 1245.91 666.874 1243.59Q666.902 1241.26 666.932 1236.33L666.91 1194.49L656.089 1195.63L655.983 1238.85L638.67 1240.67ZM706.161 1104.76L690.118 1090.04Q703.874 1075.19 709.621 1060.91Q715.368 1046.63 715.854 1030.44L690.967 1033.06L691.042 1010.35L758.67 1003.24Q767.867 1002.28 772.764 1007.23Q777.661 1012.19 777.844 1021.74L777.723 1067.43Q777.65 1079.74 771.712 1088.3Q765.773 1096.85 753.06 1098.19Q742.78 1099.27 735.94 1092.74Q729.1 1086.21 725.856 1076.16Q722.025 1083.95 717.176 1091.16Q712.327 1098.37 706.161 1104.76ZM741.39 1065.23Q742.899 1069.17 744.692 1073.22Q746.485 1077.27 750.002 1076.9Q752.977 1076.59 754.316 1073.72Q755.655 1070.84 755.741 1066.46L756.16 1026.21L737.495 1028.17L737.367 1029.55Q737.437 1038.02 735.242 1048.37Q733.048 1058.72 728.719 1069.57L741.39 1065.23ZM622.181 1078.58L643.551 1076.33Q646.955 1069.68 649.924 1062.81Q652.894 1055.93 655.457 1049.1L635.44 1051.2Q629.714 1064.39 622.181 1078.58ZM627.654 1128.05L638.745 1126.89L638.55 1099.01L627.459 1100.18L627.654 1128.05ZM656.058 1125.07L667.149 1123.9L666.954 1096.03L655.863 1097.19L656.058 1125.07ZM691.529 1171.12Q700.317 1148.04 702.658 1113.06L722.29 1115.1Q721.392 1124.77 720.081 1133.11L730.901 1131.97L730.991 1106.8L752.361 1104.55L752.271 1129.72L776.888 1127.14L776.97 1148.74L752.354 1151.32L752.32 1182.23L779.642 1179.36L779.724 1200.96L752.402 1203.83L752.479 1256.61L730.839 1258.88L730.761 1206.1L695.595 1209.8L695.513 1188.2L730.95 1184.48L730.983 1153.57L715.835 1155.16Q713.242 1166.92 709.182 1177.74L691.529 1171.12ZM627.535 1163.35Q627.491 1170.74 627.475 1178.4L638.566 1177.23L638.685 1147.13L627.594 1148.3L627.535 1163.35ZM655.879 1175.41L666.97 1174.24L667.089 1144.15L655.998 1145.31L655.879 1175.41ZM920.88 1052.93L905.516 1065.48Q899.381 1056.55 892.477 1048.12Q885.574 1039.68 877.659 1032.03L889.193 1022.07L846.723 1026.53L846.805 1048.13L824.623 1050.46L824.516 1007.81L896.201 1000.27L896.247 977.296L919.511 974.851L919.465 997.83L973.567 992.143Q983.305 991.12 988.593 995.897Q993.882 1000.67 993.709 1009.44L993.491 1041.19L971.309 1043.52L971.428 1013.43L894.873 1021.47Q909.236 1035.83 920.88 1052.93ZM965.408 1086.26Q964.479 1111.25 953.777 1127.83Q943.075 1144.4 918.188 1147.02Q903.851 1148.53 893.986 1143.14Q884.12 1137.75 877.544 1127.22Q854.877 1140.55 825.974 1151.79L818.758 1132.58Q833.239 1127.23 845.725 1121.13Q858.212 1115.03 869.247 1108.13Q865.59 1096.76 863.962 1082.57Q862.334 1068.38 861.796 1052.85L883.707 1050.54Q884.218 1060.61 885.319 1072.39Q886.421 1084.17 888.911 1094.85Q906.838 1080.66 921.099 1064.12Q935.36 1047.58 948.333 1027.89L965.629 1038.93Q950.563 1062.12 934.187 1080.66Q917.811 1099.2 896.453 1114.57Q900.054 1120.21 905.144 1123.09Q910.233 1125.98 917.266 1125.24Q930.792 1123.82 936.51 1114.46Q942.227 1105.11 943.697 1085.26L965.408 1086.26ZM859.161 1056.41Q857.066 1070.3 852.786 1085.52Q848.505 1100.74 840.743 1117.96L820.841 1110.76Q827.506 1096.11 831.993 1081.55Q836.48 1066.99 839.329 1052.47L859.161 1056.41ZM974.042 1048.71Q981.899 1061.01 988.588 1075.21Q995.277 1089.41 1000.44 1104.73L980.623 1113.93Q970.918 1084.04 955.204 1059.44L974.042 1048.71ZM839.199 1246.4L839.382 1170.07L863.728 1167.51L863.592 1220.86L900.651 1216.96L900.561 1156.26L925.178 1153.67L925.538 1214.35L962.328 1210.48L962.194 1157.16L986.54 1154.61L986.627 1230.9L839.199 1246.4ZM1214.64 1024.51L1214.71 1048.57L1161.15 1054.2L1161.2 1096.32L1181.75 1094.16Q1193.66 1092.91 1198.75 1098.39Q1203.83 1103.87 1203.75 1113.45L1203.58 1202.9L1099.43 1213.85L1099.52 1102.8L1137.12 1098.85L1137.07 1056.73L1084.05 1062.31L1083.98 1038.25L1137 1032.67L1137.12 992.183Q1117.72 997.505 1097.93 1001.77L1092.56 979.363Q1146.07 967.996 1192.68 948.327L1201.69 968.987Q1182.9 977.526 1161.23 984.727L1161.08 1030.14L1214.64 1024.51ZM1085.79 1011.25L1065.7 1025.67Q1057.7 1012.02 1049.35 1000.18Q1040.99 988.338 1032.01 978.342L1051.26 963.738Q1060.25 973.734 1069.01 985.531Q1077.77 997.328 1085.79 1011.25ZM1086.27 1083.41L1066.39 1097.26Q1059.02 1084.36 1050.53 1072.53Q1042.04 1060.71 1032.19 1050.25L1051.17 1035.68Q1061.32 1046.37 1070.08 1058.17Q1078.84 1069.97 1086.27 1083.41ZM1053.19 1226.64L1030.88 1214.76Q1044.24 1190.93 1052 1165.91Q1059.76 1140.89 1064.31 1113.89L1088.1 1119.04Q1083.42 1147.43 1075.05 1174.43Q1066.67 1201.43 1053.19 1226.64ZM1123.2 1187.56L1180 1181.59L1180.08 1117.31L1123.28 1123.28L1123.2 1187.56ZM1348.88 1195.84L1328.95 1183.16Q1337.07 1166.72 1342.82 1148.61L1326.78 1154.67Q1324.96 1147.75 1322.45 1139.54Q1306.75 1148.85 1290.28 1157.42Q1273.81 1165.98 1256.37 1174.38L1248.33 1152.53Q1252.52 1150.72 1256.43 1148.94Q1263.66 1126.57 1269.1 1102.89Q1274.54 1079.21 1278.8 1054.69L1251.48 1057.56L1251.68 1033.47L1339.87 1024.21L1339.94 1048.27L1301.79 1052.28Q1298.33 1073.97 1293.72 1095.11Q1289.1 1116.24 1283.3 1136.54Q1300.69 1127.6 1315.1 1118.98Q1311.96 1110.01 1308.14 1100.97Q1304.32 1091.94 1300.38 1083.06L1319.76 1072.27Q1328.18 1089.98 1334.69 1107.62Q1341.19 1125.26 1345.25 1140.42Q1353.1 1113.62 1356.67 1081.24Q1360.24 1048.87 1360.17 1009.22L1360.3 1002.64L1337.85 1005L1337.84 981.48L1360.29 979.12L1360.41 928.237L1383.14 925.848L1383.29 976.703L1408.17 974.088Q1417.1 973.15 1422.73 978.575Q1428.36 984 1428.3 993.852L1427.96 1146.77Q1428.2 1167.26 1421.76 1177.51Q1415.31 1187.76 1402.33 1189.12Q1389.07 1190.52 1381.11 1181.1Q1373.15 1171.68 1369.68 1154.27L1388.3 1149.3Q1390.5 1157.27 1392.94 1162.21Q1395.37 1167.16 1398.62 1166.81Q1402.13 1166.44 1403.47 1162.2Q1404.8 1157.96 1404.87 1145.64L1405.21 997.92L1383.3 1000.22L1383.22 1007.34Q1383.19 1064.23 1375.39 1112.37Q1367.6 1160.5 1348.88 1195.84ZM1332.26 949.246L1332.33 973.307L1256.32 981.296L1256.25 957.236L1332.26 949.246ZM1716.04 1125.25L1715.86 1149.61L1536.51 1168.46L1536.69 1144.1L1564.01 1141.23L1564.92 988.519L1590.07 985.875L1589.17 1138.58L1624.33 1134.89L1623.65 941.047L1547.37 949.065L1547.3 925.004L1709.33 907.974L1709.13 932.063L1648.54 938.431L1648.67 1012.54L1703.04 1006.82L1702.95 1031.99L1648.85 1037.68L1649.22 1132.27L1716.04 1125.25ZM1914.31 1135.59Q1897.54 1137.35 1886.55 1125.1Q1875.55 1112.86 1868.37 1090.09Q1861.19 1067.33 1855.63 1037.82Q1851.65 1015.54 1849.03 993.255Q1846.41 970.966 1844.95 949.24L1745.13 959.731L1745.19 934.289L1843.66 923.94Q1842.95 911.981 1842.7 900.52Q1842.46 889.059 1842.37 877.854L1868.07 875.153Q1868.13 886.088 1868.39 897.684Q1868.65 909.28 1869.09 921.268L1927.52 915.126L1927.73 940.54L1870.38 946.567Q1871.81 968.023 1874.24 989.785Q1876.66 1011.55 1880.5 1032.48Q1886.04 1061.71 1891.66 1078.76Q1897.28 1095.81 1902.4 1102.92Q1907.53 1110.04 1911.02 1109.4Q1917.48 1108.45 1916.18 1059.63L1939.3 1061.03Q1939.95 1082.84 1938.79 1099.1Q1937.62 1115.36 1932.18 1124.68Q1926.73 1134.01 1914.31 1135.59ZM1895.38 913.854Q1891.8 905.753 1887.41 897.872Q1883.03 889.991 1877.61 882.629L1894.04 872.424Q1900.03 879.999 1904.43 888.015Q1908.83 896.031 1912.41 904.133L1895.38 913.854ZM1751.83 1137.9L1744.28 1112.98Q1753.82 1110.06 1763.32 1106.74Q1772.82 1103.42 1782.27 1099.69L1782.44 1020.63L1750.52 1023.98L1750.42 999.653L1840.23 990.214L1840.33 1014.54L1806.79 1018.07L1806.9 1089.44Q1816.81 1084.84 1826.68 1079.84Q1836.55 1074.84 1846.34 1069.16L1854.13 1093.78Q1837.37 1103.47 1821.36 1111.17Q1805.35 1118.87 1788.52 1125.29Q1771.69 1131.71 1751.83 1137.9ZM1988.8 1131.31L1967.91 1114.64Q1982.45 1094.24 1991.35 1074.84Q2000.25 1055.44 2004.9 1035.95Q2009.55 1016.45 2011.45 995.465L1970.33 999.787L1970.48 975.157L2013.22 970.665Q2013.39 961.895 2013.65 952.705Q2013.92 943.515 2013.98 933.662L2014.47 896.689L1979.03 900.413L1979.18 875.783L2137.42 859.15L2137.28 883.781L2107.25 886.937L2107.9 960.714L2146.04 956.705L2145.89 981.335L2108.02 985.315L2108.75 1114.6L2084.14 1117.19L2083.4 987.903L2037.42 992.736Q2035.5 1016.18 2030.79 1038.97Q2026.07 1061.76 2016.04 1084.69Q2006.01 1107.62 1988.8 1131.31ZM2039.22 931.83Q2039.1 941.141 2038.96 950.181Q2038.82 959.222 2038.64 967.992L2083.28 963.301L2082.64 889.524L2039.62 894.045L2039.22 931.83ZM2340.6 869.248Q2350.55 888.441 2357.73 908.609Q2364.91 928.777 2368.82 947.784L2349.8 954.16Q2347.78 945.347 2344.86 935.807Q2324.7 941.755 2303.96 947.354Q2283.21 952.953 2261.88 958.203L2256.63 936.875Q2260.63 935.908 2264.64 934.94Q2276.39 908.817 2283.47 882.501Q2290.55 856.185 2294.09 830.103L2316.6 833.481Q2312.67 858.509 2306.15 882.305Q2299.62 906.102 2289.94 928.452Q2302.18 925.251 2314.13 921.807Q2326.07 918.364 2337.72 914.678Q2334.29 905.466 2330.3 896.176Q2326.32 886.886 2322.08 877.759L2340.6 869.248ZM2196.31 1104.58L2179.23 1087.78Q2189.71 1073 2197.97 1057.91Q2206.23 1042.82 2212.21 1026.88Q2198.79 1011.06 2186.58 998.938Q2190.64 977.726 2193.2 955.303Q2195.77 932.88 2197.33 908.648L2182.45 910.212L2182.52 887.504L2198.75 885.798Q2199.27 875.077 2199.59 863.83Q2199.91 852.583 2200.07 841.079L2223.08 841.396Q2222.83 852.088 2222.56 862.51Q2222.29 872.931 2221.75 883.381L2233.65 882.13Q2243.96 881.32 2249.44 886.624Q2254.92 891.929 2254.67 902.621Q2254.47 937.103 2250.45 966.516Q2246.43 995.929 2238.23 1021.95Q2244.49 1029.5 2250.78 1037.32Q2257.07 1045.13 2262.82 1053.01L2246.43 1071.41Q2238.04 1059.17 2228.58 1047.31Q2216.36 1076.76 2196.31 1104.58ZM2210 990.186Q2215.22 995.654 2220.21 1001.42Q2226.35 979.169 2229.16 955.216Q2231.98 931.262 2232.22 904.98L2220.32 906.231Q2218.81 928.27 2216.23 949.327Q2213.66 970.383 2210 990.186ZM2356.14 988.501L2355.64 1087.83L2265.56 1097.3L2266.56 979.318L2334.46 972.182Q2346.37 970.931 2351.4 974.64Q2356.44 978.35 2356.14 988.501ZM2288.28 1071.39L2332.64 1066.73L2332.85 995.872L2288.22 1000.56L2288.28 1071.39Z"></path></g></svg>